<?xml version="1.0" encoding="utf-8"?>
<svg xmlns="http://www.w3.org/2000/svg" viewBox="0 0 1000 1000">
  <linearGradient id="a" gradientUnits="userSpaceOnUse" x1="746.5411" y1="927.0218" x2="253.4588" y2="72.9782">
    <stop offset="0" stop-color="#6a2b81"/>
    <stop offset="1" stop-color="#e00c7e"/>
  </linearGradient>
  <path d="M500 7C227.7 7 7 227.7 7 500s220.7 493 493 493 493-220.7 493-493S772.3 7 500 7zM293.3 725.3H143.2l81.9-135.7c45.4 18.8 99.7 24.2 134 25.6l-65.8 110.1zm61.6-121.2c-148-2.1-264.8-69.6-115.5-168.9.2-.1 13.2-6.1 33.3-14.3 20-7.4 47.4-17.3 68.6-23.6l156.8-259.5v-.8l.2.4.2-.4v.8l223.8 370.6c-46.9 11.2-108.9 21.1-134 24.9l-90.1-150.5-104.7 175.1c-62.1 11.6-119.2.5-145.4-6.2l85.8-142c-32.2 9.3-129.2 41.7-142.5 99.1l-2.2.1s.2 1.7 1.3 4.5c-.3 2.1-.5 4.3-.6 6.4 0 0 14.4 61.5 197.2 49.4 61.5-2.4 142.1-12.7 247.7-35.8 76.3-12.7 152.3-26 171.5-32l6.7 36.2s-308 68.6-458.1 66.5zm348.5 121.2l-83.7-139.8c51.9-8.4 108.8-21.5 132.9-27.2l100.9 167H703.4zm209.4-207.5l-95.6 20.8-8.5-39.3 95.6-20.8 1.8 8.1 28.1-6.1 5 23.1-28.1 6.1 1.7 8.1zm29.6-15l-5-23.1 9-2 5 23.1-9 2zm11.2-2.5l-5-23.1 9-2 14.8 8.8-9.8 14.3-9 2z" fill="url(#a)"/>
</svg>
